<?xml version="1.0" standalone="no"?>
<!DOCTYPE svg PUBLIC "-//W3C//DTD SVG 20010904//EN"
 "http://www.w3.org/TR/2001/REC-SVG-20010904/DTD/svg10.dtd">
<svg version="1.0" xmlns="http://www.w3.org/2000/svg"
 width="415.000000pt" height="415.000000pt" viewBox="0 0 415.000000 415.000000"
 preserveAspectRatio="xMidYMid meet">
<g transform="translate(0.000000,415.000000) scale(0.100000,-0.100000)"
fill="#000000" stroke="none">
<path d="M719 4140 c-167 -6 -191 -15 -209 -78 -6 -26 -9 -681 -7 -2013 2
-1889 3 -1975 20 -2001 10 -14 32 -31 50 -37 35 -13 1926 -10 1987 2 145 30
195 43 270 69 390 137 676 448 770 841 29 118 41 289 29 408 -17 172 -28 229
-61 324 -82 235 -236 414 -434 501 -30 13 -54 29 -54 36 0 7 27 28 60 47 55
31 150 118 198 181 59 77 127 223 151 325 6 28 14 61 17 75 4 14 8 93 10 175
4 220 -31 394 -112 558 -137 275 -389 470 -702 543 -206 48 -201 48 -1042 48
-437 1 -860 -1 -941 -4z"/>
</g>
</svg>
